<?xml version="1.0" encoding="UTF-8"?>
<svg width="230px" height="22px" viewBox="0 0 230 22" version="1.1" xmlns="http://www.w3.org/2000/svg" xmlns:xlink="http://www.w3.org/1999/xlink">
    <!-- Generator: Sketch 53.2 (72643) - https://sketchapp.com -->
    <title>Path 2-3</title>
    <desc>Created with Sketch.</desc>
    <g id="Page-1" stroke="none" stroke-width="1" fill="none" fill-rule="evenodd">
        <g id="How-It-Works" transform="translate(-555.000000, -689.000000)" fill="#F2E13A" fill-rule="nonzero">
            <g id="Steps" transform="translate(102.000000, 387.000000)">
                <path d="M453.616619,309.450179 L454.383381,306.549821 C457.972532,307.498677 461.517327,308.399698 465.017759,309.252888 L464.307342,312.167559 C460.78794,311.309746 457.224368,310.403952 453.616619,309.450179 Z M475.053269,314.668046 L475.701628,311.738946 C479.33071,312.542247 482.909478,313.291336 486.437924,313.986218 L485.858247,316.929681 C482.30666,316.230241 478.705003,315.476361 475.053269,314.668046 Z M496.710013,318.923928 L497.213403,315.966463 C500.879968,316.590549 504.488789,317.152492 508.039856,317.6523 L507.621731,320.623019 C504.041917,320.119165 500.404681,319.552798 496.710013,318.923928 Z M518.587368,321.990348 L518.909735,319.007719 C522.6109,319.407745 526.244786,319.735478 529.811379,319.990937 L529.597052,322.983271 C525.994023,322.725202 522.324133,322.394222 518.587368,321.990348 Z M540.644773,323.55255 L540.736597,320.553956 C544.459102,320.667948 548.102069,320.696653 551.665485,320.640106 L551.713085,323.639729 C548.102675,323.697021 544.413243,323.66795 540.644773,323.55255 Z M562.807779,323.174729 L562.60064,320.181889 C566.314116,319.924874 569.93238,319.56602 573.455431,319.105391 L573.844362,322.080073 C570.260201,322.548692 566.58134,322.913556 562.807779,323.174729 Z M584.77998,320.269042 L584.184519,317.328731 C587.236219,316.710712 590.207618,316.006985 593.09868,315.217626 C593.666525,315.062555 594.227826,314.910321 594.788723,314.759255 L595.568909,317.65603 C595.011401,317.806184 594.453477,317.957502 593.888929,318.111672 C590.932807,318.918795 587.896479,319.637899 584.77998,320.269042 Z M606.189714,314.926412 L605.477627,312.012148 C609.114687,311.12345 612.700527,310.295562 616.235156,309.528491 L616.871394,312.460248 C613.362346,313.221768 609.801783,314.04382 606.189714,314.926412 Z M627.610469,310.288563 L627.059124,307.339662 C630.74916,306.649749 634.379941,306.030284 637.95148,305.481279 L638.407277,308.446452 C634.867985,308.9905 631.269044,309.604533 627.610469,310.288563 Z M649.261358,306.975503 L648.913724,303.995713 C652.653941,303.559364 656.324553,303.20592 659.925577,302.935407 L660.150307,305.926978 C656.59077,306.194374 652.961115,306.543874 649.261358,306.975503 Z M671.05807,305.358249 L670.973573,302.359439 C674.74987,302.253036 678.443199,302.245689 682.053572,302.337446 L681.977352,305.336478 C678.421166,305.246098 674.781401,305.253338 671.05807,305.358249 Z" id="Path-2-3"></path>
            </g>
        </g>
    </g>
</svg>