<?xml version="1.0" encoding="UTF-8"?>
<svg width="315px" height="64px" viewBox="0 0 315 64" version="1.1" xmlns="http://www.w3.org/2000/svg" xmlns:xlink="http://www.w3.org/1999/xlink">
    <!-- Generator: Sketch 53.2 (72643) - https://sketchapp.com -->
    <title>Path 2</title>
    <desc>Created with Sketch.</desc>
    <g id="Page-1" stroke="none" stroke-width="1" fill="none" fill-rule="evenodd">
        <g id="Desktop" transform="translate(-231.000000, -718.000000)" fill="#F2E13A" fill-rule="nonzero">
            <path d="M545.038279,718.765975 L544.961721,721.764998 C541.649658,721.680449 538.32333,721.616132 534.982738,721.572046 L535.022326,718.572308 C538.375217,718.616555 541.713868,718.681111 545.038279,718.765975 Z M525.003631,718.50058 L525.000114,721.500578 C521.685191,721.496692 518.356459,721.512396 515.013916,721.547689 L514.982241,718.547856 C518.33649,718.512439 521.676953,718.49668 525.003631,718.50058 Z M504.971175,718.71103 L505.037139,721.710304 C501.723363,721.783185 498.396232,721.87501 495.055749,721.985777 L494.956326,718.987425 C498.307938,718.876289 501.646221,718.784157 504.971175,718.71103 Z M484.942406,719.37428 L485.074462,722.371372 C481.763888,722.517241 478.440404,722.681424 475.104012,722.863922 L474.940159,719.8684 C478.287126,719.685324 481.621208,719.520617 484.942406,719.37428 Z M464.943038,720.467368 L465.137894,723.461033 C461.829956,723.676345 458.509521,723.909388 455.176589,724.160161 L454.951502,721.168617 C458.294486,720.917087 461.624998,720.683338 464.943038,720.467368 Z M444.957837,721.970353 L445.212428,724.959531 C441.909025,725.240884 438.593528,725.5394 435.265936,725.855079 L434.982608,722.868488 C438.319755,722.551903 441.644831,722.252525 444.957837,721.970353 Z M425.032346,723.859695 L425.343651,726.843499 C422.046081,727.187541 418.736804,727.548196 415.41582,727.925466 L415.077193,724.944638 C418.407262,724.566337 421.725646,724.204689 425.032346,723.859695 Z M405.128677,726.120088 L405.493959,729.097767 C402.202688,729.501518 398.900078,729.921361 395.58613,730.357297 L395.194863,727.382922 C398.517451,726.945849 401.828722,726.524904 405.128677,726.120088 Z M385.270378,728.731693 L385.686996,731.702623 C383.369367,732.027628 381.046266,732.360398 378.717696,732.700933 C377.745526,732.843106 376.77669,732.98727 375.810548,733.133521 L375.361536,730.167313 C376.33265,730.02031 377.306453,729.875406 378.283586,729.732508 C380.617977,729.391121 382.946908,729.057516 385.270378,728.731693 Z M365.454394,731.755713 L365.955631,734.713544 C362.651321,735.273495 359.38078,735.858692 356.14401,736.46913 L355.588026,733.5211 C358.843094,732.907211 362.131883,732.318749 365.454394,731.755713 Z M345.739596,735.477544 L346.353147,738.414133 C343.072017,739.09967 339.827121,739.812281 336.61846,740.551964 L335.944554,737.628635 C339.173378,736.884304 342.438392,736.167275 345.739596,735.477544 Z M326.197635,739.98635 L326.934886,742.894349 C323.684528,743.718398 320.473128,744.571544 317.300685,745.453783 L316.496903,742.563466 C319.691555,741.67505 322.925132,740.816012 326.197635,739.98635 Z M306.853705,745.370389 L307.727306,748.240375 C304.520933,749.21637 301.356429,750.223624 298.233795,751.262131 L297.287057,748.415433 C300.434081,747.368814 303.622965,746.353801 306.853705,745.370389 Z M287.810758,751.708413 L288.833989,754.528519 C285.685066,755.671056 282.581146,756.847177 279.522226,758.056876 L278.418967,755.267106 C281.504538,754.046867 284.635136,752.860637 287.810758,751.708413 Z M269.126243,759.103495 L270.313053,761.858759 C267.238956,763.182905 264.213158,764.543085 261.235656,765.939294 L259.961977,763.223094 C262.968354,761.813345 266.023111,760.440147 269.126243,759.103495 Z M250.920404,767.647474 L252.284334,770.319495 C249.306351,771.839603 246.380032,773.398252 243.505369,774.995438 L242.048335,772.373025 C244.953866,770.758688 247.911225,769.183506 250.920404,767.647474 Z M233.36149,777.409515 L234.914157,779.976464 C234.202197,780.407106 233.493649,780.840294 232.788513,781.276028 L231.211487,778.723972 C231.924727,778.28323 232.641395,777.845078 233.36149,777.409515 Z" id="Path-2"></path>
        </g>
    </g>
</svg>