<?xml version="1.0" encoding="UTF-8"?>
<svg width="161px" height="271px" viewBox="0 0 161 271" version="1.1" xmlns="http://www.w3.org/2000/svg" xmlns:xlink="http://www.w3.org/1999/xlink">
    <!-- Generator: Sketch 53.2 (72643) - https://sketchapp.com -->
    <title>Path 1</title>
    <desc>Created with Sketch.</desc>
    <defs>
        <linearGradient x1="50%" y1="0%" x2="50%" y2="100%" id="linearGradient-1">
            <stop stop-color="#FFFFFF" offset="0%"></stop>
            <stop stop-color="#F2E02E" offset="100%"></stop>
        </linearGradient>
    </defs>
    <g id="Page-1" stroke="none" stroke-width="1" fill="none" fill-rule="evenodd">
        <g id="Desktop" transform="translate(-796.000000, -374.000000)" fill="url(#linearGradient-1)" fill-rule="nonzero">
            <path d="M796.713916,377.472466 L797.286084,374.527534 C800.615279,375.17436 803.892174,375.840173 807.116771,376.524977 L806.493563,379.459532 C803.286072,378.778361 800.026188,378.116004 796.713916,377.472466 Z M816.229936,381.622362 L816.90862,378.700138 C820.218918,379.468953 823.470257,380.259197 826.662642,381.070878 L825.923397,383.978371 C822.751307,383.17185 819.520152,382.386512 816.229936,381.622362 Z M835.535862,386.537568 L836.341259,383.6477 C839.618124,384.560951 842.827903,385.498627 845.970602,386.460738 L845.092408,389.329323 C841.974097,388.374677 838.78858,387.444089 835.535862,386.537568 Z M854.588311,392.380755 L855.547017,389.538066 C858.780596,390.628602 861.936474,391.747492 865.014656,392.894755 L863.966937,395.705855 C860.918546,394.569696 857.792335,393.461324 854.588311,392.380755 Z M873.222675,399.339689 L874.369303,396.567462 C877.532148,397.875654 880.6037,399.217263 883.583961,400.592319 L882.327125,403.316353 C879.383667,401.958278 876.348849,400.632713 873.222675,399.339689 Z M891.271603,407.688706 L892.651848,405.025076 C895.703657,406.606468 898.646256,408.227995 901.479637,409.889704 L899.96196,412.477494 C897.174251,410.84257 894.277469,409.246291 891.271603,407.688706 Z M908.347728,417.73196 L910.018052,415.239969 C912.883293,417.160474 915.616461,419.129731 918.217503,421.147806 L916.378497,423.51805 C913.832923,421.543011 911.156018,419.614292 908.347728,417.73196 Z M923.9449,429.876264 L925.967125,427.660275 C928.517683,429.987815 930.909016,432.374273 933.140972,434.81969 L930.925147,436.842095 C928.75542,434.464858 926.428721,432.142902 923.9449,429.876264 Z M937.205342,444.46519 L939.617897,442.682052 C941.662444,445.448289 943.521777,448.282705 945.195654,451.185168 L942.596856,452.683918 C940.980023,449.880368 939.182932,447.140836 937.205342,444.46519 Z M946.997443,461.498985 L949.758232,460.325085 C951.088554,463.453748 952.222119,466.653614 953.158813,469.924349 L950.274753,470.750304 C949.371962,467.597949 948.279562,464.514286 946.997443,461.498985 Z M952.391567,480.271026 L955.353455,479.794353 C955.885516,483.100401 956.232345,486.472226 956.394052,489.909581 L953.397366,490.050557 C953.240914,486.724889 952.905611,483.465127 952.391567,480.271026 Z M953.347899,499.910707 L956.343346,500.075933 C956.306097,500.751244 956.262205,501.428896 956.211671,502.10892 C956.011197,504.805851 955.771094,507.472822 955.491162,510.112085 L952.507895,509.795666 C952.784493,507.187848 953.021774,504.552222 953.219923,501.886564 C953.269044,501.225553 953.311703,500.566935 953.347899,499.910707 Z M951.254129,519.661841 L954.221509,520.103041 C953.722835,523.456976 953.156238,526.763155 952.521705,530.021565 L949.57702,529.448125 C950.202957,526.233858 950.761999,522.971767 951.254129,519.661841 Z M947.447822,539.155161 L950.361831,539.86829 C949.555889,543.161551 948.676179,546.402924 947.72269,549.592385 L944.848382,548.733111 C945.787342,545.592248 946.653827,542.399606 947.447822,539.155161 Z M941.758049,558.15717 L944.582604,559.168055 C943.441524,562.356393 942.221576,565.489177 940.922756,568.566375 L938.158866,567.399795 C939.435946,564.374103 940.635676,561.293238 941.758049,558.15717 Z M934.036266,576.432033 L936.727999,577.756637 C935.236562,580.787393 933.662708,583.75995 932.006446,586.674271 L929.398229,585.191974 C931.025038,582.329479 932.571047,579.409511 934.036266,576.432033 Z M924.22669,593.681868 L926.740085,595.319808 C924.902239,598.139956 922.980654,600.900778 920.975354,603.602236 L918.566483,601.814125 C920.535418,599.161656 922.422146,596.450915 924.22669,593.681868 Z M912.447315,609.555991 L914.743645,611.4865 C912.585489,614.053614 910.344743,616.562012 908.021438,619.011671 L905.844723,616.947231 C908.126898,614.540939 910.327751,612.0772 912.447315,609.555991 Z M898.803757,623.947326 L900.856142,626.13541 C898.419138,628.421279 895.902952,630.650694 893.307616,632.823648 L891.381746,630.523426 C893.934006,628.386537 896.407998,626.194506 898.803757,623.947326 Z M883.585315,636.697417 L885.383987,639.098413 C882.718766,641.095026 879.979347,643.038644 877.165759,644.929271 L875.492539,642.439223 C878.263746,640.577076 880.961329,638.663139 883.585315,636.697417 Z" id="Path-1"></path>
        </g>
    </g>
</svg>