<?xml version="1.0" encoding="UTF-8"?>
<svg width="28px" height="27px" viewBox="0 0 28 27" version="1.1" xmlns="http://www.w3.org/2000/svg" xmlns:xlink="http://www.w3.org/1999/xlink">
    <!-- Generator: Sketch 53.2 (72643) - https://sketchapp.com -->
    <title>check-mark</title>
    <desc>Created with Sketch.</desc>
    <g id="Page-1" stroke="none" stroke-width="1" fill="none" fill-rule="evenodd">
        <g id="Desktop" transform="translate(-281.000000, -2264.000000)" fill-rule="nonzero">
            <g id="List" transform="translate(282.000000, 2265.000000)">
                <g id="Bullet-1">
                    <g id="check-mark">
                        <path d="M12.793177,25 C5.7389856,25 0,19.3925328 0,12.5 C0,5.60746718 5.7389856,0 12.793177,0 C19.8473683,0 25.5863539,5.60746718 25.5863539,12.5 C25.5863539,19.3925328 19.8473683,25 12.793177,25 Z" id="Path" stroke="#45BE00"></path>
                        <path d="M20.5356131,6.67076185 L10.4633151,16.5123224 L5.05061114,11.2236421 C4.8230728,11.0013174 4.45449019,11.0013174 4.22700646,11.2236421 C3.99952273,11.4459667 3.99946813,11.8061038 4.22700646,12.0283751 L10.05154,17.7194487 C10.1652819,17.8305844 10.3143531,17.8861789 10.4633697,17.8861789 C10.6123863,17.8861789 10.7614029,17.8305844 10.8751993,17.7194487 L21.359327,7.47554827 C21.5868653,7.25322362 21.5868653,6.8930865 21.359327,6.6708152 C21.1317341,6.44849055 20.7631515,6.44849055 20.5356131,6.67076185 Z" id="Path" fill="#45BE00"></path>
                    </g>
                </g>
            </g>
        </g>
    </g>
</svg>