<?xml version="1.0" encoding="UTF-8"?>
<svg width="40px" height="56px" viewBox="0 0 40 56" version="1.1" xmlns="http://www.w3.org/2000/svg" xmlns:xlink="http://www.w3.org/1999/xlink">
    <!-- Generator: Sketch 53.2 (72643) - https://sketchapp.com -->
    <title>Easy Icon</title>
    <desc>Created with Sketch.</desc>
    <g id="Page-1" stroke="none" stroke-width="1" fill="none" fill-rule="evenodd">
        <g id="How-It-Works" transform="translate(-172.000000, -1456.000000)" fill="#45BE00" fill-rule="nonzero">
            <g id="Easy" transform="translate(42.000000, 1456.000000)">
                <path d="M150.942575,49.7208455 C150.796747,50.19304 150.365462,50.7181162 149.701953,51.3537893 C149.091588,51.9385474 148.413664,52.4926087 147.414534,53.2607357 C145.107615,55.0342848 143.023752,56 141.636681,56 C140.982835,56 140.093382,55.1303555 138.697388,53.3684271 C137.604581,51.9891615 136.255298,50.1000701 134.753095,47.870115 C131.140469,42.5073307 129.570719,39.620567 130.100312,38.3518471 C130.3289,37.8042297 130.802217,37.3495175 131.574468,36.8428466 C131.988392,36.5712729 133.756224,35.5595834 134.13902,35.3208379 C134.185662,35.291748 134.231598,35.2628316 134.276904,35.2340332 C134.522767,35.0777532 135.394725,34.5185743 135.526796,34.4342828 C135.77583,34.2753423 135.991696,34.1386326 136.198157,34.0093684 C138.189451,32.7626259 139.52776,32.0830787 140.566731,31.9272799 C140.574414,31.8849548 140.587535,31.8433345 140.606146,31.8034953 C141.627369,29.6173918 142.291803,27.3226493 142.703725,24.8127169 C142.99744,23.0230436 143.08204,22.0463482 143.290656,18.8046836 C143.424788,16.720422 143.53671,15.7649968 143.803165,14.9355555 C144.16891,13.7970402 144.84004,13.1838565 145.891973,13.1838565 C147.795139,13.1838565 149.087236,14.4315125 149.719868,16.7877398 C150.269843,18.8361084 150.350093,21.7795508 149.969782,25.6318747 L164.852109,16.0215922 C166.780856,14.8127054 168.342132,14.8127054 169.352469,16.1425341 C170.033298,17.038657 170.164149,17.9709516 169.806615,18.8652934 C169.532928,19.5499006 168.99841,20.1646899 168.270775,20.7376895 C166.170373,22.3841008 163.932512,23.974219 161.55723,25.5080909 C162.555796,25.613329 163.241777,26.0295872 163.582251,26.7879782 C164.007212,27.7345588 163.753609,28.8119643 162.887499,30.0105972 C164.247285,30.200328 165.130113,30.8109416 165.463286,31.8651012 C165.768846,32.8318918 165.444712,33.8101979 164.547573,34.7958639 C165.531014,34.8804686 166.255827,35.3401045 166.674673,36.188251 C167.277547,37.4090471 166.926504,38.6784187 165.713652,39.9064073 C165.690292,39.9300581 165.664656,39.9512934 165.637123,39.9697973 L151.251627,49.6379587 C151.156448,49.7019263 151.047852,49.7282336 150.942575,49.7208455 Z M141.61642,31.9900169 C144.180984,36.3744168 147.356183,41.8794438 151.14213,48.5052816 L165.044675,39.1617009 C165.95257,38.2280365 166.169931,37.4153136 165.785503,36.6368611 C165.405332,35.8670315 164.603473,35.6072342 163.232297,35.8995053 C162.714274,36.0099238 162.407393,35.3340511 162.827991,35.009063 C164.250932,33.9095822 164.768229,32.9668273 164.516631,32.1707732 C164.26396,31.3713206 163.433034,30.9506726 161.889636,30.9506726 C161.458461,30.9506726 161.231913,30.4336248 161.521683,30.1108995 C162.643265,28.8617636 162.989345,27.8981652 162.677279,27.2030532 C162.383294,26.5482144 161.447141,26.3112553 159.742683,26.6113821 C159.202682,26.7064673 158.930483,25.9774932 159.39798,25.6882355 C162.358975,23.8561561 165.113546,21.9413571 167.660883,19.9446147 C169.001439,18.8889483 169.409862,17.8673099 168.564274,16.7543268 C167.921105,15.9077729 166.919448,15.9077729 165.38149,16.8716703 L149.631852,27.0420739 C149.278877,27.2700091 148.822377,26.9813464 148.870768,26.5608107 C149.830963,18.2162862 148.749484,14.1883408 145.891973,14.1883408 C144.837716,14.1883408 144.519973,15.177434 144.282347,18.8698849 C144.071463,22.1467927 143.985231,23.1423222 143.684114,24.9770981 C143.273104,27.4814707 142.616656,29.7870741 141.61642,31.9900169 Z M136.721473,34.8633008 C136.517712,34.9908752 136.304176,35.126109 136.057382,35.2836196 C135.926889,35.3669043 135.053855,35.9267734 134.805948,36.0843525 C134.758223,36.1146885 134.709893,36.1451117 134.660879,36.1756811 C134.252632,36.4303001 132.498383,37.4342164 132.115547,37.6853933 C131.496456,38.0915767 131.147729,38.4265958 131.015938,38.7423233 C130.874993,39.0799779 131.25638,40.1946334 132.13618,41.8125812 C132.918311,43.250917 134.035025,45.0194324 135.574539,47.3047729 C137.063539,49.5151282 138.39917,51.3851056 139.473086,52.7405293 C140.067133,53.4902942 140.573296,54.0725092 140.977525,54.4677362 C141.179649,54.6653581 141.352597,54.8124382 141.490533,54.9055241 C141.550133,54.9457448 141.59973,54.9734897 141.636707,54.9889021 C141.651895,54.9952327 141.653093,54.9955157 141.636681,54.9955157 C142.76102,54.9955157 144.662954,54.1141107 146.812906,52.4612374 C147.7846,51.7142034 148.441729,51.1771373 149.018301,50.6247543 C149.383143,50.2752178 149.658452,49.9675719 149.828536,49.7152049 C149.909701,49.5947752 149.962575,49.4930016 149.986942,49.4165284 C149.993937,49.3945753 149.997663,49.3776438 149.998997,49.3661731 C149.62398,48.26886 148.768641,46.5977225 147.158404,43.789995 C146.4551,42.5636606 145.611506,41.1246194 144.36799,39.0247631 C143.920351,38.2688605 141.666044,34.4717274 140.744413,32.9166645 C139.897483,33.0340765 138.620185,33.6745236 136.721473,34.8633008 Z M145.030614,50.3497758 C144.001515,50.3497758 143.167265,49.5065453 143.167265,48.4663677 C143.167265,47.4261902 144.001515,46.5829596 145.030614,46.5829596 C146.059713,46.5829596 146.893963,47.4261902 146.893963,48.4663677 C146.893963,49.5065453 146.059713,50.3497758 145.030614,50.3497758 Z M145.030614,49.3452915 C145.51086,49.3452915 145.900177,48.9517839 145.900177,48.4663677 C145.900177,47.9809515 145.51086,47.5874439 145.030614,47.5874439 C144.550368,47.5874439 144.161051,47.9809515 144.161051,48.4663677 C144.161051,48.9517839 144.550368,49.3452915 145.030614,49.3452915 Z M158.059553,8.78404236 C157.992863,9.05315477 157.722999,9.21683271 157.456796,9.14962727 C157.190592,9.08242183 157.028855,8.80978235 157.095545,8.54066995 L158.46407,3.01831841 C158.53076,2.74920601 158.800624,2.58552807 159.066827,2.65273351 C159.333031,2.71993894 159.494768,2.99257842 159.428078,3.26169083 L158.059553,8.78404236 Z M152.269921,6.91899509 C152.243246,7.19494851 152.000172,7.39622322 151.727001,7.36855476 C151.45383,7.34088629 151.254005,7.09475212 151.28068,6.81879871 L151.644753,3.05244621 C151.671428,2.7764928 151.914502,2.57521808 152.187673,2.60288655 C152.460844,2.63055502 152.660669,2.87668918 152.633994,3.1526426 L152.269921,6.91899509 Z M151.838419,10.6740256 C151.812205,10.949924 151.569418,11.1512243 151.296138,11.1236423 C151.022857,11.0960604 150.82257,10.850041 150.848784,10.5741426 L151.027893,8.68900764 C151.054106,8.41310923 151.296894,8.21180895 151.570174,8.23939086 C151.843454,8.26697278 152.043742,8.51299219 152.017528,8.78889059 L151.838419,10.6740256 Z M162.337454,13.5933798 C162.175126,13.8179901 161.863844,13.8685623 161.642186,13.7063358 C161.420528,13.5441093 161.372432,13.2305161 161.53476,13.0059057 L163.158864,10.7586651 C163.321192,10.5340547 163.632474,10.4834826 163.854132,10.6457091 C164.07579,10.8079355 164.123886,11.1215288 163.961558,11.3461392 L162.337454,13.5933798 Z M166.312599,8.06871608 C166.150271,8.29332646 165.838988,8.3438986 165.61733,8.18167212 C165.395673,8.01944564 165.347576,7.70585241 165.509905,7.48124203 L167.134008,5.23400142 C167.296336,5.00939104 167.607618,4.9588189 167.829276,5.12104538 C168.050934,5.28327186 168.09903,5.5968651 167.936702,5.82147548 L166.312599,8.06871608 Z M164.72,10.044843 C164.342664,10.044843 164.036772,9.73565853 164.036772,9.35426009 C164.036772,8.97286165 164.342664,8.66367713 164.72,8.66367713 C165.097337,8.66367713 165.403228,8.97286165 165.403228,9.35426009 C165.403228,9.73565853 165.097337,10.044843 164.72,10.044843 Z M159.626847,1.632287 C159.24951,1.632287 158.943619,1.32310247 158.943619,0.941704036 C158.943619,0.560305599 159.24951,0.251121076 159.626847,0.251121076 C160.004183,0.251121076 160.310075,0.560305599 160.310075,0.941704036 C160.310075,1.32310247 160.004183,1.632287 159.626847,1.632287 Z M152.421898,1.38116592 C152.044561,1.38116592 151.73867,1.0719814 151.73867,0.69058296 C151.73867,0.309184523 152.044561,-2.23154828e-14 152.421898,-2.23154828e-14 C152.799234,-2.23154828e-14 153.105126,0.309184523 153.105126,0.69058296 C153.105126,1.0719814 152.799234,1.38116592 152.421898,1.38116592 Z" id="Easy-Icon"></path>
            </g>
        </g>
    </g>
</svg>