<?xml version="1.0" encoding="utf-8"?>
<!-- Generator: Adobe Illustrator 23.0.1, SVG Export Plug-In . SVG Version: 6.00 Build 0)  -->
<svg version="1.1" id="Layer_1" xmlns="http://www.w3.org/2000/svg" xmlns:xlink="http://www.w3.org/1999/xlink" x="0px" y="0px"
	 viewBox="0 0 745 123.6" style="enable-background:new 0 0 745 123.6;" xml:space="preserve">
<style type="text/css">
	.st0{fill:#69BA31;stroke:#69BA31;stroke-miterlimit:10;}
</style>
<g>
	<path class="st0" d="M5.7,17.2h64.7v19.7H31v9.6h35.8v19.7H31V76h40.4v19.7H5.7V17.2z"/>
	<path class="st0" d="M129,39.3c4.8,4,7.3,9.6,7.3,16.7v39.6h-24.1v-6.6c-3.6,5.2-9.2,7.7-16.8,7.7c-6.3,0-11.1-1.7-14.7-5.2
		c-3.5-3.5-5.3-8.2-5.3-14.1c0-6,2-10.6,5.9-13.8c3.9-3.1,9.7-4.8,17.2-4.9h13.6c-0.1-2.2-0.9-3.8-2.5-5c-1.6-1.2-3.8-1.7-6.8-1.7
		c-2.3,0-5.1,0.3-8.3,1c-3.2,0.7-6.5,1.6-9.8,2.9l-5.5-16.8c5.1-1.9,10.2-3.4,15.2-4.4c5.1-1,9.8-1.5,14.2-1.5
		C117.5,33.3,124.2,35.3,129,39.3z M108.5,79.5c1.5-0.8,2.7-2,3.7-3.5v-5.6h-8.5c-3.5,0-5.2,1.6-5.2,4.9c0,1.7,0.5,3,1.4,4
		c0.9,0.9,2.3,1.4,4,1.4C105.5,80.8,107,80.4,108.5,79.5z"/>
	<path class="st0" d="M168.8,49.9c-1,0-1.8,0.2-2.5,0.6c-0.6,0.4-0.9,0.9-0.9,1.5c0,0.9,0.7,1.6,2,2.2c1.3,0.6,3.5,1.3,6.5,2.1
		c4.3,1.2,8,2.4,11,3.7c3.1,1.3,5.7,3.2,8,5.8c2.3,2.6,3.4,6,3.4,10.2c0,4.2-1.1,7.8-3.3,11c-2.2,3.1-5.4,5.6-9.4,7.3
		c-4.1,1.7-8.8,2.6-14.3,2.6c-11.1,0-20.8-2.9-29.1-8.7l7.4-15.7c8,5.1,15.3,7.6,22,7.6c1.2,0,2.1-0.2,2.7-0.5s1-0.8,1-1.3
		c0-0.8-0.6-1.5-1.9-2.1c-1.3-0.6-3.3-1.2-6.2-2c-4.3-1.1-7.9-2.3-10.9-3.6c-3-1.3-5.6-3.2-7.9-5.8c-2.3-2.6-3.4-6-3.4-10.3
		s1.1-8,3.3-11.1c2.2-3.2,5.3-5.6,9.2-7.4c4-1.8,8.6-2.6,13.8-2.6c9.5,0,18.8,2.6,27.7,7.7L189,56.6
		C180.1,52.1,173.4,49.9,168.8,49.9z"/>
	<path class="st0" d="M235.1,114c-4.3,3-9.6,4.5-16,4.5c-3.9,0-7.5-0.6-10.9-1.7c-3.3-1.2-6.6-3-9.8-5.4l10.3-16.6
		c2.5,2.4,5.2,3.6,8,3.6c2.8,0,4.7-1,5.9-3.1l0.9-1.5l-24.8-59.4h25.2l11.8,34.9l9.7-34.9h24.4l-24.5,65.5
		C242.8,106.3,239.4,111,235.1,114z"/>
	<path class="st0" d="M273.9,17.2h26.8l19,41l18.9-41h26.8v78.5h-22.1v-43L327.9,88h-16.5l-15.4-35.4v43h-22.1V17.2z"/>
	<path class="st0" d="M419,37.7c4.8,2.8,8.5,6.7,11,11.8c2.5,5.1,3.8,11.1,3.8,18c0,1.4,0,2.5-0.1,3.2h-38.8
		c0.8,2.4,2.1,4.2,3.8,5.4c1.7,1.2,3.8,1.8,6.2,1.8c4.3,0,8.3-1.8,12.1-5.5l12.8,12.9c-3.2,3.7-7.1,6.4-11.6,8.3
		c-4.5,1.9-9.7,2.9-15.4,2.9c-6.7,0-12.5-1.3-17.4-3.9s-8.7-6.2-11.2-10.9c-2.6-4.7-3.9-10.2-3.9-16.5c0-6.4,1.3-12,3.9-16.8
		c2.6-4.8,6.3-8.5,11.2-11.1c4.8-2.6,10.4-3.9,16.7-3.9C408.6,33.5,414.2,34.9,419,37.7z M407.4,52.8c-1.3-1.6-3.1-2.5-5.2-2.5
		c-2,0-3.7,0.8-5.1,2.4c-1.3,1.6-2.3,3.7-2.8,6.4h14.8C409.4,56.5,408.8,54.4,407.4,52.8z"/>
	<path class="st0" d="M471.2,35.9c3.1-1.8,6.6-2.6,10.4-2.6V56c-1.6-0.2-3.2-0.3-4.7-0.3c-4.2,0-7.5,1-9.9,2.9
		c-2.4,1.9-3.6,4.5-3.6,7.9v29.2h-24.5V34.4h24.5v9C465.5,40.2,468.1,37.7,471.2,35.9z"/>
	<path class="st0" d="M548.7,34.4v56.2c0,5.6-1.4,10.5-4.2,14.7c-2.8,4.2-6.7,7.5-11.8,9.7c-5.1,2.3-10.9,3.4-17.4,3.4
		c-5.5,0-10.7-0.7-15.7-2.2c-5-1.5-9.1-3.4-12.5-5.7l7.7-16.9c2.5,1.6,5.5,2.9,8.8,3.9c3.3,1,6.5,1.5,9.4,1.5c3.6,0,6.3-0.7,8.2-2.1
		c1.9-1.4,2.9-3.3,2.9-5.7v-5.8c-3.8,4.3-8.8,6.5-14.9,6.5c-4.7,0-8.9-1.2-12.6-3.6c-3.7-2.4-6.7-5.9-8.8-10.4
		c-2.1-4.5-3.2-9.7-3.2-15.6c0-5.7,1-10.8,3.1-15.2c2-4.4,4.9-7.7,8.6-10.1c3.7-2.4,7.8-3.6,12.5-3.6c6.4,0,11.5,2.2,15.4,6.6v-5.7
		H548.7z M522,71c1.5-2,2.3-4.7,2.3-8c0-3.4-0.7-6-2.2-8.1c-1.5-2-3.5-3-6.1-3c-2.5,0-4.6,1-6.1,3c-1.5,2-2.2,4.7-2.2,8.1
		c0,3.3,0.8,5.9,2.3,8s3.5,3,6,3C518.5,74,520.5,73,522,71z"/>
	<path class="st0" d="M602,37.7c4.8,2.8,8.5,6.7,11,11.8c2.5,5.1,3.8,11.1,3.8,18c0,1.4,0,2.5-0.1,3.2h-38.8
		c0.8,2.4,2.1,4.2,3.8,5.4c1.7,1.2,3.8,1.8,6.2,1.8c4.3,0,8.3-1.8,12.1-5.5l12.8,12.9c-3.2,3.7-7.1,6.4-11.6,8.3
		c-4.5,1.9-9.7,2.9-15.4,2.9c-6.7,0-12.5-1.3-17.4-3.9s-8.7-6.2-11.2-10.9c-2.6-4.7-3.9-10.2-3.9-16.5c0-6.4,1.3-12,3.9-16.8
		c2.6-4.8,6.3-8.5,11.2-11.1c4.8-2.6,10.4-3.9,16.7-3.9C591.5,33.5,597.2,34.9,602,37.7z M590.3,52.8c-1.3-1.6-3.1-2.5-5.2-2.5
		c-2,0-3.7,0.8-5.1,2.4c-1.3,1.6-2.3,3.7-2.8,6.4h14.8C592.3,56.5,591.7,54.4,590.3,52.8z"/>
	<path class="st0" d="M637.2,76.8c2.1,2.1,3.1,4.9,3.1,8.2c0,3.4-1,6.2-3.1,8.3s-4.8,3.2-8.1,3.2c-3.3,0-5.9-1.1-8-3.2
		c-2.1-2.1-3.1-4.9-3.1-8.3c0-3.4,1-6.1,3.1-8.2c2.1-2.1,4.7-3.2,8-3.2C632.5,73.6,635.2,74.7,637.2,76.8z"/>
	<path class="st0" d="M666.2,7.7c2.3,2.4,3.5,5.5,3.5,9.2c0,3.7-1.2,6.8-3.5,9.2c-2.3,2.4-5.3,3.6-8.9,3.6c-3.6,0-6.6-1.2-8.9-3.6
		c-2.3-2.4-3.5-5.4-3.5-9.2c0-3.7,1.2-6.8,3.5-9.2c2.3-2.4,5.3-3.6,8.9-3.6C660.9,4.2,663.9,5.4,666.2,7.7z M645.3,34.4h24.5v61.3
		h-24.5V34.4z"/>
	<path class="st0" d="M726.1,37.4c5.1,2.6,9,6.2,11.8,11c2.8,4.7,4.1,10.3,4.1,16.6c0,6.3-1.4,11.9-4.1,16.6
		c-2.8,4.7-6.7,8.4-11.8,11c-5.1,2.6-11,3.9-17.8,3.9s-12.7-1.3-17.8-3.9c-5.1-2.6-9-6.3-11.8-11c-2.8-4.7-4.1-10.3-4.1-16.6
		c0-6.3,1.4-11.9,4.1-16.6c2.8-4.7,6.7-8.4,11.8-11c5.1-2.6,11-3.9,17.8-3.9S721,34.8,726.1,37.4z M701.8,56.7
		c-1.6,2.2-2.5,5-2.5,8.6c0,3.6,0.8,6.5,2.5,8.6c1.6,2.2,3.8,3.2,6.5,3.2c2.7,0,4.9-1.1,6.5-3.2c1.6-2.2,2.5-5,2.5-8.6
		c0-3.6-0.8-6.5-2.5-8.6c-1.6-2.2-3.8-3.2-6.5-3.2C705.6,53.4,703.5,54.5,701.8,56.7z"/>
</g>
</svg>
