<?xml version="1.0" encoding="UTF-8"?>
<svg width="48px" height="48px" viewBox="0 0 48 48" version="1.1" xmlns="http://www.w3.org/2000/svg" xmlns:xlink="http://www.w3.org/1999/xlink">
    <!-- Generator: Sketch 53.2 (72643) - https://sketchapp.com -->
    <title>gear icon</title>
    <desc>Created with Sketch.</desc>
    <g id="Page-1" stroke="none" stroke-width="1" fill="none" fill-rule="evenodd" stroke-linecap="round" stroke-linejoin="round">
        <g id="About-Us" transform="translate(-168.000000, -533.000000)" stroke="#45BE00">
            <g id="What-we-believe-in" transform="translate(42.000000, 427.000000)">
                <g id="Simple" transform="translate(0.000000, 107.000000)">
                    <g id="gear-icon" transform="translate(127.000000, 0.000000)">
                        <path d="M17.5125972,46.4877227 C15.2605247,45.9792377 13.1037263,45.1528367 11.0989255,44.0379192 L10.8226092,43.8842531 L11.0608208,40.1938071 C11.2200962,37.7262657 9.34887682,35.5968099 6.88133538,35.4375346 C6.69018474,35.4251961 6.49843929,35.4251375 6.30728114,35.437359 L2.31338495,35.6927048 L2.15624879,35.433901 C1.01551602,33.5551096 0.136934681,31.5281744 -0.451181398,29.4036625 L-0.534997703,29.1008843 L2.52052274,26.427055 C4.38132637,24.7987003 4.56976341,21.9701785 2.94140865,20.1093749 C2.81060484,19.9598988 2.66999889,19.8192928 2.52052274,19.688489 L-0.564389572,16.9889394 L-0.482535222,16.6874201 C0.0914741441,14.5729945 0.95280636,12.5537778 2.07397878,10.6793289 L2.23056135,10.417544 L6.30728114,10.678185 C8.77491954,10.8359511 10.9032303,8.96342955 11.0609964,6.49579115 C11.0732179,6.304633 11.0731592,6.11288755 11.0608208,5.92173691 L10.813968,2.0974197 L11.0900924,1.94370931 C13.066319,0.843601681 15.1905467,0.0238481805 17.4083573,-0.487230416 L17.6983248,-0.554051353 L20.1437757,2.213899 C21.7809343,4.06696162 24.6103177,4.24198641 26.4633803,2.60482781 C26.6016187,2.48269584 26.7321771,2.35213739 26.8543091,2.213899 L29.0869557,-0.313182923 L29.3881052,-0.229866157 C31.6914595,0.407385532 33.8793611,1.38138912 35.8876858,2.65581151 L36.1378327,2.81454722 L35.937264,5.92173691 C35.7779886,8.38927835 37.649208,10.5187341 40.1167494,10.6780095 C40.3079001,10.6903479 40.4996455,10.6904065 40.6908037,10.678185 L43.5962577,10.4924277 L43.7525185,10.7558848 C45.0079478,12.87255 45.9320879,15.1705756 46.4872298,17.5795395 L46.5544136,17.8710747 L44.4775621,19.688489 C42.6167584,21.3168438 42.4283214,24.1453655 44.0566762,26.0061691 C44.18748,26.1556453 44.3280859,26.2962512 44.4775621,26.427055 L46.5288309,28.2220823 L46.4597736,28.5149515 C45.8895532,30.9332325 44.947017,33.2379281 43.6709115,35.357388 L43.5140824,35.6178626 L40.6908037,35.437359 C38.2231653,35.279593 36.0948545,37.1521145 35.9370884,39.6197529 C35.9248669,39.810911 35.9249256,40.0026565 35.937264,40.1938071 L36.1292283,43.1677748 L35.8788912,43.3264805 C33.8435508,44.6168209 31.6241312,45.5986131 29.2872882,46.2342372 L28.9872326,46.3158526 L26.8543091,43.901645 C25.2171505,42.0485824 22.3877672,41.8735576 20.5347045,43.5107162 C20.3964661,43.6328482 20.2659077,43.7634066 20.1437757,43.901645 L17.8013976,46.5529296 L17.5125972,46.4877227 Z M23,33.5 C28.7989899,33.5 33.5,28.7989899 33.5,23 C33.5,17.2010101 28.7989899,12.5 23,12.5 C17.2010101,12.5 12.5,17.2010101 12.5,23 C12.5,28.7989899 17.2010101,33.5 23,33.5 Z" id="Combined-Shape"></path>
                    </g>
                </g>
            </g>
        </g>
    </g>
</svg>