<?xml version="1.0" encoding="UTF-8"?>
<svg width="206px" height="33px" viewBox="0 0 206 33" version="1.1" xmlns="http://www.w3.org/2000/svg" xmlns:xlink="http://www.w3.org/1999/xlink">
    <!-- Generator: Sketch 53.2 (72643) - https://sketchapp.com -->
    <title>Logo</title>
    <desc>Created with Sketch.</desc>
    <g id="Page-1" stroke="none" stroke-width="1" fill="none" fill-rule="evenodd">
        <g id="Desktop" transform="translate(-41.000000, -24.000000)">
            <g id="Nav-Bar">
                <g id="Logo" transform="translate(42.000000, 25.000000)">
                    <polygon id="Path" stroke="#69BA31" stroke-width="1.23046875" stroke-linecap="round" stroke-linejoin="round" points="0.0265279584 3.53031161 18.1009103 3.53031161 18.1009103 8.86090652 7.1006502 8.86090652 7.1006502 11.4603399 17.1016905 11.4603399 17.1016905 16.7909348 7.1006502 16.7909348 7.1006502 19.4254958 18.3750325 19.4254958 18.3750325 24.7560907 0.0265279584 24.7560907"></polygon>
                    <path d="M34.3625488,9.51076487 C35.7154746,10.5909348 36.3875163,12.1014164 36.3875163,14.0334278 L36.3875163,24.7473088 L29.6494148,24.7473088 L29.6494148,22.9645892 C28.6325098,24.3609065 27.0673602,25.0546742 24.9539662,25.0546742 C23.2031209,25.0546742 21.8413524,24.5892351 20.8509753,23.6495751 C19.8694408,22.709915 19.3742523,21.4453258 19.3742523,19.8470255 C19.3742523,18.2135977 19.9224967,16.9753541 21.0189857,16.1235127 C22.1154746,15.2716714 23.7248375,14.8325779 25.8382315,14.7886686 L29.6494148,14.7886686 C29.6317295,14.2002833 29.4018205,13.7524079 28.9596879,13.4450425 C28.5263979,13.1288952 27.8897269,12.9796034 27.0585176,12.9796034 C26.4041612,12.9796034 25.6348505,13.0674221 24.7240572,13.2518414 C23.8221066,13.4362606 22.9113134,13.6997167 21.9916775,14.0422096 L20.4707412,9.501983 C21.8944083,8.97507082 23.3092328,8.57988669 24.7240572,8.30764873 C26.1388817,8.03541076 27.4652796,7.89490085 28.703251,7.89490085 C31.1261378,7.89490085 33.0184655,8.4305949 34.3625488,9.51076487 Z M28.6325098,20.3915014 C29.0481144,20.1719547 29.3929779,19.8558074 29.6494148,19.4518414 L29.6494148,17.9413598 L27.2707412,17.9413598 C26.2980494,17.9413598 25.8117035,18.3892351 25.8117035,19.276204 C25.8117035,19.7416431 25.9443433,20.1016997 26.2096229,20.3475921 C26.4749025,20.6022663 26.8462939,20.7252125 27.3414824,20.7252125 C27.7836151,20.7252125 28.2169051,20.61983 28.6325098,20.3915014 Z" id="Shape" stroke="#69BA31" stroke-width="1.23046875" stroke-linecap="round" stroke-linejoin="round"></path>
                    <path d="M45.4158648,12.3736544 C45.1328999,12.3736544 44.9029909,12.4263456 44.7261378,12.5229462 C44.5492848,12.6283286 44.4697009,12.7512748 44.4697009,12.9181303 C44.4697009,13.1640227 44.6553966,13.3660057 45.0179454,13.5240793 C45.3804941,13.682153 45.9906372,13.8753541 46.8483745,14.0949008 C48.0509753,14.41983 49.076723,14.7535411 49.9256177,15.096034 C50.783355,15.4385269 51.5261378,15.9654391 52.1628088,16.6679887 C52.7994798,17.3705382 53.126658,18.2926346 53.126658,19.4254958 C53.126658,20.5583569 52.8171651,21.5419263 52.1981795,22.3937677 C51.5791938,23.2456091 50.7037711,23.8954674 49.5630689,24.3609065 C48.4223667,24.8263456 47.0959688,25.0546742 45.5661899,25.0546742 C42.4535761,25.0546742 39.7477243,24.2643059 37.4309493,22.6923513 L39.50013,18.4507082 C41.7373212,19.8206799 43.7888166,20.5056657 45.6546164,20.5056657 C45.9817945,20.5056657 46.2293888,20.4617564 46.4150845,20.3651558 C46.6007802,20.2685552 46.6892068,20.1543909 46.6892068,20.013881 C46.6892068,19.7943343 46.5123537,19.6011331 46.1586476,19.4518414 C45.8049415,19.3025496 45.2301691,19.1269122 44.4343303,18.9249292 C43.2317295,18.6263456 42.2236671,18.3014164 41.3836151,17.9589235 C40.5524057,17.6164306 39.8096229,17.0895184 39.1729519,16.3869688 C38.5362809,15.6844193 38.2091027,14.7535411 38.2091027,13.6031161 C38.2091027,12.4526912 38.5097529,11.4515581 39.119896,10.5909348 C39.730039,9.73031161 40.5877763,9.07167139 41.6931079,8.58866856 C42.7984395,8.11444759 44.0894668,7.87733711 45.5485046,7.87733711 C48.210143,7.87733711 50.7921977,8.57110482 53.2946684,9.9674221 L51.0397919,14.1739377 C48.5726918,12.9796034 46.6980494,12.3736544 45.4158648,12.3736544 Z" id="Path" stroke="#69BA31" stroke-width="1.23046875" stroke-linecap="round" stroke-linejoin="round"></path>
                    <path d="M63.6405722,29.7002833 C62.4379714,30.5169972 60.9435631,30.929745 59.1573472,30.929745 C58.0608583,30.929745 57.0527958,30.7716714 56.1243173,30.4643059 C55.1958388,30.1481586 54.2938882,29.6651558 53.3919376,28.9977337 L56.2569571,24.5189802 C56.9643693,25.1688385 57.7071521,25.4849858 58.4853056,25.4849858 C59.2546164,25.4849858 59.8028609,25.203966 60.130039,24.6331445 L60.3776333,24.2379603 L53.4626788,8.19348442 L60.5014304,8.19348442 L63.7908973,17.6339943 L66.5055917,8.19348442 L73.3321196,8.19348442 L66.4790637,25.9065156 C65.7893368,27.6189802 64.843173,28.8835694 63.6405722,29.7002833 Z" id="Path" stroke="#69BA31" stroke-width="1.23046875" stroke-linecap="round" stroke-linejoin="round"></path>
                    <polygon id="Path" stroke="#69BA31" stroke-width="1.23046875" stroke-linecap="round" stroke-linejoin="round" points="74.6143043 3.53031161 82.1128739 3.53031161 87.4184655 14.6130312 92.6886866 3.53031161 100.187256 3.53031161 100.187256 24.7473088 93.9973992 24.7473088 93.9973992 13.1201133 89.69987 22.6835694 85.1016905 22.6835694 80.8041612 13.1201133 80.8041612 24.7473088 74.6143043 24.7473088"></polygon>
                    <path d="M114.910273,9.07167139 C116.254356,9.81813031 117.280104,10.8807365 117.987516,12.268272 C118.694928,13.6470255 119.057477,15.2716714 119.057477,17.1246459 C119.057477,17.5110482 119.048635,17.8008499 119.030949,18.0028329 L108.181014,18.0028329 C108.402081,18.6526912 108.755787,19.1356941 109.23329,19.4694051 C109.710793,19.8031161 110.285566,19.9699717 110.957607,19.9699717 C112.160208,19.9699717 113.283225,19.478187 114.344343,18.4858357 L117.907932,21.9634561 C117.014824,22.9558074 115.927178,23.7022663 114.662679,24.2203966 C113.389337,24.7385269 111.956827,24.9932011 110.347464,24.9932011 C108.481664,24.9932011 106.854616,24.6419263 105.484005,23.9481586 C104.113394,23.2543909 103.069961,22.2708215 102.344863,20.9974504 C101.619766,19.7240793 101.26606,18.2399433 101.26606,16.5450425 C101.26606,14.8062323 101.628609,13.2957507 102.362549,12.0048159 C103.096489,10.713881 104.131079,9.71274788 105.484005,9.0101983 C106.836931,8.30764873 108.393238,7.94759207 110.161769,7.94759207 C111.983355,7.95637394 113.56619,8.32521246 114.910273,9.07167139 Z M111.66502,13.1552408 C111.284785,12.7073654 110.807282,12.4878187 110.214824,12.4878187 C109.648895,12.4878187 109.171391,12.6985836 108.8,13.1201133 C108.419766,13.5416431 108.163329,14.1212465 108.021847,14.8413598 L112.169051,14.8413598 C112.204421,14.1651558 112.036411,13.6031161 111.66502,13.1552408 Z" id="Shape" stroke="#69BA31" stroke-width="1.23046875" stroke-linecap="round" stroke-linejoin="round"></path>
                    <path d="M129.191157,8.60623229 C130.057737,8.13201133 131.021586,7.89490085 132.10039,7.89490085 L132.10039,14.0422096 C131.649415,13.9807365 131.216125,13.9543909 130.791678,13.9543909 C129.615605,13.9543909 128.687126,14.2090652 128.015085,14.7271955 C127.343043,15.2453258 127.007022,15.9566572 127.007022,16.8611898 L127.007022,24.7648725 L120.145124,24.7648725 L120.145124,8.21104816 L127.007022,8.21104816 L127.007022,10.6348442 C127.59948,9.74787535 128.324577,9.08045326 129.191157,8.60623229 Z" id="Path" stroke="#69BA31" stroke-width="1.23046875" stroke-linecap="round" stroke-linejoin="round"></path>
                    <path d="M150.846814,8.19348442 L150.846814,23.386119 C150.846814,24.8966006 150.457737,26.2226629 149.670741,27.3643059 C148.892588,28.505949 147.787256,29.384136 146.381274,29.9988669 C144.96645,30.6135977 143.348244,30.9209632 141.517815,30.9209632 C139.996879,30.9209632 138.537841,30.7189802 137.140702,30.3150142 C135.752406,29.9110482 134.585176,29.3929178 133.647854,28.7694051 L135.814304,24.2028329 C136.521717,24.6507082 137.344083,25.001983 138.281404,25.2654391 C139.218726,25.5288952 140.094148,25.6606232 140.89883,25.6606232 C141.898049,25.6606232 142.658518,25.476204 143.197919,25.0985836 C143.737321,24.729745 144.002601,24.2203966 144.002601,23.5705382 L144.002601,21.9985836 C142.941482,23.1665722 141.553186,23.7549575 139.828869,23.7549575 C138.528999,23.7549575 137.352926,23.4300283 136.309493,22.7713881 C135.26606,22.1127479 134.443693,21.1818697 133.860078,19.9699717 C133.26762,18.7580737 132.975813,17.3529745 132.975813,15.7634561 C132.975813,14.2090652 133.258778,12.8390935 133.83355,11.6623229 C134.39948,10.4855524 135.204161,9.57223796 136.229909,8.9223796 C137.255657,8.27252125 138.422887,7.95637394 139.722757,7.95637394 C141.508973,7.95637394 142.941482,8.55354108 144.020286,9.73909348 L144.020286,8.19348442 L150.846814,8.19348442 L150.846814,8.19348442 Z M143.374772,18.0906516 C143.79922,17.5461756 144.011443,16.8260623 144.011443,15.9390935 C144.011443,15.0345609 143.79922,14.3056657 143.383615,13.7611898 C142.96801,13.2167139 142.402081,12.9444759 141.694668,12.9444759 C140.987256,12.9444759 140.421326,13.2167139 140.005722,13.7611898 C139.590117,14.3056657 139.377893,15.0345609 139.377893,15.9390935 C139.377893,16.8260623 139.590117,17.5461756 140.014564,18.0906516 C140.439012,18.6351275 140.996099,18.9073654 141.694668,18.9073654 C142.393238,18.9073654 142.950325,18.6351275 143.374772,18.0906516 Z" id="Shape" stroke="#69BA31" stroke-width="1.23046875" stroke-linecap="round" stroke-linejoin="round"></path>
                    <path d="M165.53446,9.07167139 C166.878544,9.81813031 167.904291,10.8807365 168.611704,12.268272 C169.319116,13.6470255 169.681664,15.2716714 169.681664,17.1246459 C169.681664,17.5110482 169.672822,17.8008499 169.655137,18.0028329 L158.805202,18.0028329 C159.026268,18.6526912 159.379974,19.1356941 159.857477,19.4694051 C160.33498,19.8031161 160.909753,19.9699717 161.581795,19.9699717 C162.784395,19.9699717 163.907412,19.478187 164.968531,18.4858357 L168.53212,21.9634561 C167.639012,22.9558074 166.551365,23.7022663 165.286866,24.2203966 C164.013524,24.7385269 162.581014,24.9932011 160.971651,24.9932011 C159.105852,24.9932011 157.478804,24.6419263 156.108192,23.9481586 C154.737581,23.2543909 153.694148,22.2708215 152.969051,20.9974504 C152.243953,19.7240793 151.890247,18.2399433 151.890247,16.5450425 C151.890247,14.8062323 152.252796,13.2957507 152.986736,12.0048159 C153.720676,10.713881 154.755267,9.71274788 156.108192,9.0101983 C157.461118,8.30764873 159.017425,7.94759207 160.785956,7.94759207 C162.607542,7.95637394 164.19922,8.32521246 165.53446,9.07167139 Z M162.289207,13.1552408 C161.908973,12.7073654 161.431469,12.4878187 160.839012,12.4878187 C160.273082,12.4878187 159.795579,12.6985836 159.424187,13.1201133 C159.043953,13.5416431 158.787516,14.1212465 158.646034,14.8413598 L162.793238,14.8413598 C162.837451,14.1651558 162.669441,13.6031161 162.289207,13.1552408 Z" id="Shape" stroke="#69BA31" stroke-width="1.23046875" stroke-linecap="round" stroke-linejoin="round"></path>
                    <path d="M183.078283,0.992351275 C183.73264,1.64220963 184.050975,2.46770538 184.050975,3.4776204 C184.050975,4.48753541 183.723797,5.31303116 183.078283,5.96288952 C182.423927,6.61274788 181.592718,6.92889518 180.575813,6.92889518 C179.558908,6.92889518 178.727698,6.60396601 178.073342,5.96288952 C177.418986,5.31303116 177.10065,4.48753541 177.10065,3.4776204 C177.10065,2.46770538 177.427828,1.64220963 178.073342,0.992351275 C178.727698,0.342492918 179.558908,0.0263456091 180.575813,0.0263456091 C181.592718,0.0175637394 182.423927,0.342492918 183.078283,0.992351275 Z M177.224447,8.19348442 L184.086346,8.19348442 L184.086346,24.7473088 L177.224447,24.7473088 L177.224447,8.19348442 Z" id="Shape" stroke="#69BA31" stroke-width="1.23046875" stroke-linecap="round" stroke-linejoin="round"></path>
                    <path d="M199.507932,9.00141643 C200.931599,9.69518414 202.028088,10.6875354 202.797399,11.9696884 C203.56671,13.2518414 203.955787,14.7535411 203.955787,16.4660057 C203.955787,18.1784703 203.56671,19.68017 202.797399,20.9623229 C202.028088,22.2444759 200.931599,23.2368272 199.507932,23.9481586 C198.084265,24.6507082 196.430689,25.0107649 194.538362,25.0107649 C192.646034,25.0107649 190.992458,24.6594901 189.568791,23.9481586 C188.145124,23.2456091 187.048635,22.2444759 186.279324,20.9623229 C185.510013,19.68017 185.120936,18.1784703 185.120936,16.4660057 C185.120936,14.7535411 185.510013,13.2518414 186.279324,11.9696884 C187.048635,10.6875354 188.145124,9.69518414 189.568791,9.00141643 C190.992458,8.30764873 192.646034,7.95637394 194.538362,7.95637394 C196.430689,7.95637394 198.084265,8.29886686 199.507932,9.00141643 Z M192.725618,14.217847 C192.2658,14.8062323 192.035891,15.5790368 192.035891,16.5450425 C192.035891,17.5110482 192.2658,18.2926346 192.725618,18.872238 C193.185436,19.4606232 193.786736,19.7504249 194.538362,19.7504249 C195.289987,19.7504249 195.891287,19.4606232 196.351105,18.872238 C196.810923,18.2838527 197.040832,17.5110482 197.040832,16.5450425 C197.040832,15.5790368 196.810923,14.7974504 196.351105,14.217847 C195.891287,13.6294618 195.289987,13.3396601 194.538362,13.3396601 C193.786736,13.3396601 193.185436,13.6294618 192.725618,14.217847 Z" id="Shape" stroke="#69BA31" stroke-width="1.23046875" stroke-linecap="round" stroke-linejoin="round"></path>
                    <g id="Group" transform="translate(169.159948, 17.915014)">
                        <ellipse id="Oval" fill="#69BA31" fill-rule="nonzero" cx="3.68738622" cy="3.66203966" rx="3.66085826" ry="3.63569405"></ellipse>
                        <g transform="translate(0.972692, 2.195467)" stroke="#FFFFFF" stroke-width="0.625">
                            <path d="M5.40286086,1.18555241 C5.40286086,2.66090652 4.20026008,3.85524079 2.71469441,3.85524079 C1.22912874,3.85524079 0.0265279584,2.66090652 0.0265279584,1.18555241" id="Path" stroke-linecap="round"></path>
                            <ellipse id="Oval" cx="1.52977893" cy="0.588385269" rx="1" ry="1"></ellipse>
                            <ellipse id="Oval" cx="3.53706112" cy="0.588385269" rx="1" ry="1"></ellipse>
                        </g>
                    </g>
                </g>
            </g>
        </g>
    </g>
</svg>