<?xml version="1.0" encoding="UTF-8"?>
<svg width="52px" height="54px" viewBox="0 0 52 54" version="1.1" xmlns="http://www.w3.org/2000/svg" xmlns:xlink="http://www.w3.org/1999/xlink">
    <!-- Generator: Sketch 53.2 (72643) - https://sketchapp.com -->
    <title>No surprises icon</title>
    <desc>Created with Sketch.</desc>
    <g id="Page-1" stroke="none" stroke-width="1" fill="none" fill-rule="evenodd">
        <g id="How-It-Works" transform="translate(-486.000000, -1461.000000)">
            <g id="No-Surprises" transform="translate(362.000000, 1461.000000)">
                <g id="No-surprises-icon" transform="translate(125.000000, 0.000000)">
                    <g transform="translate(0.000000, -0.000000)">
                        <rect id="Rectangle" stroke="#45BE00" x="6.5" y="29.5" width="37" height="22" rx="1"></rect>
                        <rect id="Rectangle" stroke="#45BE00" x="4.5" y="22.5" width="41" height="7" rx="1"></rect>
                        <rect id="Rectangle" stroke="#45BE00" x="19.5" y="22.5" width="11" height="7"></rect>
                        <rect id="Rectangle" stroke="#45BE00" x="20.5" y="29.5" width="9" height="22"></rect>
                        <path d="M24.5,20.5 C24.5,17.4281993 24.5,17.3380086 24.5,15.5 C24.5,12.7385763 22.2614237,10.5 19.5,10.5 C16.7385763,10.5 14.5,12.7385763 14.5,15.5 C14.5,18.2614237 16.7385763,20.5 19.5,20.5 C21.3312424,20.5 21.4209076,20.5 24.5,20.5 Z" id="Oval" stroke="#45BE00"></path>
                        <path d="M36.5,20.5 C36.5,17.4281993 36.5,17.3380086 36.5,15.5 C36.5,12.7385763 34.2614237,10.5 31.5,10.5 C28.7385763,10.5 26.5,12.7385763 26.5,15.5 C26.5,18.2614237 28.7385763,20.5 31.5,20.5 C33.3312424,20.5 33.4209076,20.5 36.5,20.5 Z" id="Oval-Copy" stroke="#45BE00" transform="translate(31.500000, 15.500000) scale(-1, 1) translate(-31.500000, -15.500000) "></path>
                        <circle id="Oval" fill="#45BE00" cx="12.5" cy="6.5" r="1"></circle>
                        <circle id="Oval-Copy-2" fill="#45BE00" cx="22.5" cy="0.5" r="1"></circle>
                        <circle id="Oval-Copy-3" fill="#45BE00" cx="26" cy="6" r="1"></circle>
                        <circle id="Oval-Copy-4" fill="#45BE00" cx="36.5" cy="7.5" r="1"></circle>
                        <path d="M19,5 L17,2" id="Path-12" stroke="#45BE00" stroke-linecap="round"></path>
                        <path d="M32,5 L34,2" id="Path-13" stroke="#45BE00" stroke-linecap="round"></path>
                        <path d="M0,53 L50,21" id="Path-14" stroke="#FFFFFF" stroke-width="2" fill="#8ED664" stroke-linecap="round"></path>
                        <path d="M2,51 L49,21" id="Path-15" stroke="#45BE00" stroke-linecap="round"></path>
                    </g>
                </g>
            </g>
        </g>
    </g>
</svg>