<?xml version="1.0" encoding="UTF-8"?>
<svg width="48px" height="56px" viewBox="0 0 48 56" version="1.1" xmlns="http://www.w3.org/2000/svg" xmlns:xlink="http://www.w3.org/1999/xlink">
    <!-- Generator: Sketch 53.2 (72643) - https://sketchapp.com -->
    <title>No suprises_icon</title>
    <desc>Created with Sketch.</desc>
    <g id="Page-1" stroke="none" stroke-width="1" fill="none" fill-rule="evenodd">
        <g id="How-It-Works" transform="translate(-488.000000, -1456.000000)">
            <g id="No-Surprises" transform="translate(362.000000, 1455.000000)">
                <g id="No-suprises_icon" transform="translate(125.385787, 0.344352)">
                    <path d="M23.9906835,18.7505534 L23.4835444,17.7665423 C23.6109474,17.7682004 23.7392438,17.7691058 23.8684336,17.7692581 C24.0378893,17.7417348 24.2051742,17.7137528 24.3702872,17.6853145 L24.1084419,18.7505534 L41.3045685,18.7505534 C41.8428359,18.7505534 42.2791878,19.1856433 42.2791878,19.7223538 L42.2791878,26.6464319 C42.2791878,27.1831425 41.8428359,27.6182323 41.3045685,27.6182323 L41.0609137,27.6182323 L41.0609137,45.9609655 C41.0609137,46.4976761 40.6245618,46.932766 40.0862944,46.932766 L7.31472081,46.932766 C6.77645344,46.932766 6.34010152,46.4976761 6.34010152,45.9609655 L6.34010152,27.6182323 L5.97461929,27.6182323 C5.43635192,27.6182323 5,27.1831425 5,26.6464319 L5,19.7223538 C5,19.1856433 5.43635192,18.7505534 5.97461929,18.7505534 L23.9906835,18.7505534 Z M19.7411168,45.9609655 L19.7411168,27.7397074 L7.31472081,27.7397074 L7.31472081,45.9609655 L19.7411168,45.9609655 Z M27.4162437,45.9609655 L40.0862944,45.9609655 L40.0862944,27.7397074 L27.4162437,27.7397074 L27.4162437,45.9609655 Z M20.715736,45.9609655 L26.4416244,45.9609655 L26.4416244,27.7397074 L20.715736,27.7397074 L20.715736,45.9609655 Z M19.0101523,26.6464319 L19.0101523,19.7223538 L5.97461929,19.7223538 L5.97461929,26.6464319 L19.0101523,26.6464319 Z M28.3908629,26.6464319 L41.3045685,26.6464319 L41.3045685,19.7223538 L28.3908629,19.7223538 L28.3908629,26.6464319 Z M19.9847716,19.7223538 L19.9847716,26.6464319 L27.4162437,26.6464319 L27.4162437,19.7223538 L19.9847716,19.7223538 Z M23.474205,17.7484209 C21.980378,14.8499218 20.7912068,12.7598184 19.9121612,11.4849047 C18.2318399,9.04787004 17.1610978,8.3703259 15.7053599,9.30954954 C14.6714861,9.97659187 13.6817232,11.2223512 13.3179923,12.4140105 C12.8978738,13.7904075 13.3016534,14.946293 14.7124511,15.7709203 C16.9009232,17.0501073 19.8236126,17.7189094 23.4835444,17.7665423 L23.474205,17.7484209 Z M32.65884,14.7347171 C33.6068837,13.8889208 33.9549881,13.0130672 33.8263935,12.1297559 C33.7197454,11.3971936 33.2758183,10.6677177 32.6577826,10.1130944 C31.4180672,9.00057756 29.0310726,8.86260128 27.5770412,10.1191171 C26.4592199,11.0850936 25.3732097,13.6052255 24.3809341,17.6420006 L24.3702872,17.6853145 C28.4939097,16.9750786 31.2628503,15.9801479 32.65884,14.7347171 Z M23.9076334,17.7692812 L23.8296292,17.7755466 C23.8425766,17.7734531 23.8555114,17.7713569 23.8684336,17.7692581 C23.8814911,17.7692735 23.8945577,17.7692812 23.9076334,17.7692812 Z M26.9387333,9.38473811 C28.7805344,7.7931272 31.7187265,7.96296454 33.3097685,9.39076081 C34.0855818,10.0869732 34.648499,11.0119777 34.7909038,11.9901513 C34.9680236,13.2067811 34.4927483,14.4026053 33.3087111,15.4589429 C31.6785654,16.9132759 28.5777857,17.9922973 23.9856377,18.7348162 L23.9468886,18.7410816 L23.9076334,18.7410816 C19.8883581,18.7410816 16.6578738,18.0345088 14.2195671,16.6092906 C12.4061198,15.54931 11.8383482,13.9239703 12.3855995,12.1310595 C12.8188934,10.7114971 13.9552952,9.28117162 15.1758968,8.4936549 C16.3053475,7.76494754 17.3916934,7.76953738 18.4124007,8.41542046 C19.1750354,8.89800042 19.8347635,9.65729257 20.7152884,10.9343518 C21.5020988,12.0754932 22.5135504,13.8210221 23.7532049,16.1753628 C24.7067087,12.6633753 25.7535683,10.4089103 26.9387333,9.38473811 Z M23.5786802,6.96747312 C23.2086214,6.96747312 22.9086294,6.66834883 22.9086294,6.29936032 C22.9086294,5.93037181 23.2086214,5.63124752 23.5786802,5.63124752 C23.948739,5.63124752 24.248731,5.93037181 24.248731,6.29936032 C24.248731,6.66834883 23.948739,6.96747312 23.5786802,6.96747312 Z M21.2639594,2.10847095 C20.8939006,2.10847095 20.5939086,1.80934666 20.5939086,1.44035815 C20.5939086,1.07136964 20.8939006,0.77224535 21.2639594,0.77224535 C21.6340182,0.77224535 21.9340102,1.07136964 21.9340102,1.44035815 C21.9340102,1.80934666 21.6340182,2.10847095 21.2639594,2.10847095 Z M32.2284264,6.72452301 C31.8583676,6.72452301 31.5583756,6.42539872 31.5583756,6.05641021 C31.5583756,5.6874217 31.8583676,5.38829741 32.2284264,5.38829741 C32.5984852,5.38829741 32.8984772,5.6874217 32.8984772,6.05641021 C32.8984772,6.42539872 32.5984852,6.72452301 32.2284264,6.72452301 Z M11.7614213,5.63124752 C11.3913625,5.63124752 11.0913706,5.33212323 11.0913706,4.96313472 C11.0913706,4.59414621 11.3913625,4.29502192 11.7614213,4.29502192 C12.1314801,4.29502192 12.4314721,4.59414621 12.4314721,4.96313472 C12.4314721,5.33212323 12.1314801,5.63124752 11.7614213,5.63124752 Z M27.8605889,6.37413596 C27.748457,6.61795654 27.4592779,6.72460911 27.2146892,6.61235116 C26.9701005,6.50009321 26.862723,6.21143453 26.9748549,5.96761396 L28.4446759,2.77162039 C28.5568077,2.52779981 28.8459869,2.42114723 29.0905755,2.53340519 C29.3351642,2.64566314 29.4425417,2.93432182 29.3304099,3.17814239 L27.8605889,6.37413596 Z M17.3583815,5.40233553 L15.8885604,2.20634196 C15.7764286,1.96252138 15.8838061,1.67386271 16.1283948,1.56160475 C16.3729835,1.4493468 16.6621626,1.55599938 16.7742945,1.79981995 L18.2441155,4.99581352 C18.3562473,5.2396341 18.2488698,5.52829278 18.0042811,5.64055073 C17.7596924,5.75280868 17.4705133,5.6461561 17.3583815,5.40233553 Z" id="Combined-Shape" fill="#45BE00" fill-rule="nonzero"></path>
                    <path d="M24.05613,0.00176434209 L25.2740487,5.20662982e-07 C25.5424037,-0.000388118002 25.7602635,0.216841537 25.7606521,0.485196535 C25.7606528,0.485665664 25.7606528,0.486134792 25.7606521,0.486603921 L25.6672755,64.9631636 C25.6668876,65.2309692 25.449885,65.4479718 25.1820795,65.4483596 L23.9641608,65.4501235 C23.6958058,65.4505121 23.477946,65.2332824 23.4775574,64.9649274 C23.4775567,64.9644583 23.4775567,64.9639892 23.4775574,64.9635201 L23.570934,0.486960357 C23.5713218,0.219154812 23.7883244,0.00215218503 24.05613,0.00176434209 Z" id="Crossline_white" fill="#FFFFFF" transform="translate(24.619105, 32.725062) rotate(45.000000) translate(-24.619105, -32.725062) "></path>
                    <path d="M24.2090625,0.601885055 L24.4537714,0.601530662 C24.7221264,0.601142023 24.9399861,0.818371678 24.9403748,1.08672668 C24.9403754,1.0871958 24.9403754,1.08766493 24.9403748,1.08813406 L24.8536929,60.9419469 C24.8533051,61.2097525 24.6363024,61.4267551 24.3684969,61.4271429 L24.1237881,61.4274973 C23.8554331,61.427886 23.6375733,61.2106563 23.6371847,60.9423013 C23.637184,60.9418322 23.637184,60.9413631 23.6371847,60.9408939 L23.7238665,1.08708107 C23.7242544,0.819275525 23.941257,0.602272898 24.2090625,0.601885055 Z" id="Crossline" fill="#45BE00" transform="translate(24.288780, 31.014514) rotate(45.000000) translate(-24.288780, -31.014514) "></path>
                </g>
            </g>
        </g>
    </g>
</svg>