<?xml version="1.0" encoding="UTF-8"?>
<svg width="105px" height="132px" viewBox="0 0 105 132" version="1.1" xmlns="http://www.w3.org/2000/svg" xmlns:xlink="http://www.w3.org/1999/xlink">
    <!-- Generator: Sketch 53.2 (72643) - https://sketchapp.com -->
    <title>Repo Icon</title>
    <desc>Created with Sketch.</desc>
    <g id="Page-1" stroke="none" stroke-width="1" fill="none" fill-rule="evenodd">
        <g id="How-It-Works" transform="translate(-460.000000, -515.000000)" fill="#000000" fill-rule="nonzero">
            <g id="Steps" transform="translate(102.000000, 387.000000)">
                <g id="Step-2" transform="translate(320.000000, 128.000000)">
                    <path d="M50.7492791,37.7998485 C43.3067819,35.0534086 38,27.896437 38,19.5 C38,8.73044738 46.7304474,0 57.5,0 C68.2695526,0 77,8.73044738 77,19.5 C77,27.896708 71.6928755,35.0538707 64.25,37.8001145 L64.25,76.1264768 C67.2062949,74.5549864 70.6194123,73.3479622 74.4606787,72.5248337 C82.7324817,70.7523045 103.788901,64.1224741 107.69115,62.4314995 C111.608043,60.7341793 114.36504,57.0768105 115.856706,50.9450776 C108.886091,47.9723029 104,41.0567553 104,33 C104,22.2304474 112.730447,13.5 123.5,13.5 C134.269553,13.5 143,22.2304474 143,33 C143,41.668264 137.344052,49.0155106 129.521281,51.5526136 C127.34885,62.9848941 121.911056,70.9825444 113.05885,74.8185005 C108.317567,76.8730564 86.4114357,83.7704275 77.2893213,85.7251663 C70.2075896,87.2426802 66.3427952,89.9750967 64.9073132,94.4561192 C72.0033847,97.3722846 77,104.352631 77,112.5 C77,123.269553 68.2695526,132 57.5,132 C46.7304474,132 38,123.269553 38,112.5 C38,104.103313 43.307098,96.9461651 50.7499442,94.1999061 L50.7492791,37.7998485 Z M57.5,26.25 C61.2279221,26.25 64.25,23.2279221 64.25,19.5 C64.25,15.7720779 61.2279221,12.75 57.5,12.75 C53.7720779,12.75 50.75,15.7720779 50.75,19.5 C50.75,23.2279221 53.7720779,26.25 57.5,26.25 Z M123.5,39.75 C127.227922,39.75 130.25,36.7279221 130.25,33 C130.25,29.2720779 127.227922,26.25 123.5,26.25 C119.772078,26.25 116.75,29.2720779 116.75,33 C116.75,36.7279221 119.772078,39.75 123.5,39.75 Z M57.5,119.25 C61.2279221,119.25 64.25,116.227922 64.25,112.5 C64.25,108.772078 61.2279221,105.75 57.5,105.75 C53.7720779,105.75 50.75,108.772078 50.75,112.5 C50.75,116.227922 53.7720779,119.25 57.5,119.25 Z" id="Repo-Icon"></path>
                </g>
            </g>
        </g>
    </g>
</svg>