<?xml version="1.0" encoding="UTF-8"?>
<svg width="30px" height="63px" viewBox="0 0 30 63" version="1.1" xmlns="http://www.w3.org/2000/svg" xmlns:xlink="http://www.w3.org/1999/xlink">
    <!-- Generator: Sketch 53.2 (72643) - https://sketchapp.com -->
    <title>rocket icon</title>
    <desc>Created with Sketch.</desc>
    <g id="Page-1" stroke="none" stroke-width="1" fill="none" fill-rule="evenodd">
        <g id="About-Us" transform="translate(-498.000000, -528.000000)" stroke="#45BE00">
            <g id="What-we-believe-in" transform="translate(42.000000, 427.000000)">
                <g id="Momentum" transform="translate(320.000000, 101.000000)">
                    <g id="rocket-icon" transform="translate(136.000000, 0.000000)">
                        <g>
                            <path d="M14.7058442,61.4043172 C11.9196876,59.3772844 10.5,57.070292 10.5,54.5 C10.5,50.669371 12.4503822,47.5 15,47.5 C17.5496178,47.5 19.5,50.669371 19.5,54.5 C19.5,57.070292 18.0803124,59.3772844 15.2941558,61.4043172 L15,61.6183265 L14.7058442,61.4043172 Z" id="Oval"></path>
                            <circle id="Oval" cx="15" cy="19" r="4.5"></circle>
                            <path d="M15,0.639052173 C5.09727403,8.64267277 2.92178943,22.2322021 8.538413,41.5 L21.461587,41.5 C27.0782106,22.2322021 24.902726,8.64267277 15,0.639052173 Z" id="Rectangle"></path>
                            <rect id="Rectangle" x="10.5" y="41.5" width="9" height="6"></rect>
                            <path d="M5.89681512,30.7509002 C-0.143215313,36.3118911 -1.10251206,42.0691544 2.96668322,48.184841 L8.46205706,41.8639283 C7.66445014,37.8291005 7.01807262,34.8355726 6.52387859,32.8866561 C6.27496241,31.9050237 6.06564078,31.1928249 5.8994249,30.7577178 C5.89855329,30.7554361 5.89768336,30.7531636 5.89681512,30.7509002 Z" id="Rectangle"></path>
                            <path d="M26.8968151,30.7509002 C20.8567847,36.3118911 19.8974879,42.0691544 23.9666832,48.184841 L29.4620588,41.8639263 C28.6644501,37.8291005 28.0180726,34.8355726 27.5238786,32.8866561 C27.2749624,31.9050237 27.0656408,31.1928249 26.8994249,30.7577178 C26.8985533,30.7554361 26.8976834,30.7531636 26.8968151,30.7509002 Z" id="Rectangle" transform="translate(25.500000, 39.500000) scale(-1, 1) translate(-25.500000, -39.500000) "></path>
                        </g>
                    </g>
                </g>
            </g>
        </g>
    </g>
</svg>