<?xml version="1.0" encoding="UTF-8"?>
<svg width="132px" height="132px" viewBox="0 0 132 132" version="1.1" xmlns="http://www.w3.org/2000/svg" xmlns:xlink="http://www.w3.org/1999/xlink">
    <!-- Generator: Sketch 53.2 (72643) - https://sketchapp.com -->
    <title>Slack_Mark</title>
    <desc>Created with Sketch.</desc>
    <g id="Page-1" stroke="none" stroke-width="1" fill="none" fill-rule="evenodd">
        <g id="How-It-Works" transform="translate(-763.000000, -515.000000)" fill-rule="nonzero">
            <g id="Steps" transform="translate(102.000000, 387.000000)">
                <g id="Step-3" transform="translate(640.000000, 128.000000)">
                    <g id="Slack_Mark" transform="translate(21.000000, 0.000000)">
                        <g id="Group" transform="translate(0.000000, 69.000000)" fill="#E01E5A">
                            <path d="M28.1898305,14.0949153 C28.1898305,21.6762712 21.9966102,27.8694915 14.4152542,27.8694915 C6.83389831,27.8694915 0.640677966,21.6762712 0.640677966,14.0949153 C0.640677966,6.51355932 6.83389831,0.320338983 14.4152542,0.320338983 L28.1898305,0.320338983 L28.1898305,14.0949153 Z" id="Path"></path>
                            <path d="M35.1305085,14.0949153 C35.1305085,6.51355932 41.3237288,0.320338983 48.9050847,0.320338983 C56.4864407,0.320338983 62.679661,6.51355932 62.679661,14.0949153 L62.679661,48.5847458 C62.679661,56.1661017 56.4864407,62.359322 48.9050847,62.359322 C41.3237288,62.359322 35.1305085,56.1661017 35.1305085,48.5847458 L35.1305085,14.0949153 Z" id="Path"></path>
                        </g>
                        <g id="Group" fill="#36C5F0">
                            <path d="M48.9050847,28.1898305 C41.3237288,28.1898305 35.1305085,21.9966102 35.1305085,14.4152542 C35.1305085,6.83389831 41.3237288,0.640677966 48.9050847,0.640677966 C56.4864407,0.640677966 62.679661,6.83389831 62.679661,14.4152542 L62.679661,28.1898305 L48.9050847,28.1898305 Z" id="Path"></path>
                            <path d="M48.9050847,35.1305085 C56.4864407,35.1305085 62.679661,41.3237288 62.679661,48.9050847 C62.679661,56.4864407 56.4864407,62.679661 48.9050847,62.679661 L14.4152542,62.679661 C6.83389831,62.679661 0.640677966,56.4864407 0.640677966,48.9050847 C0.640677966,41.3237288 6.83389831,35.1305085 14.4152542,35.1305085 L48.9050847,35.1305085 Z" id="Path"></path>
                        </g>
                        <g id="Group" transform="translate(69.000000, 0.000000)" fill="#2EB67D">
                            <path d="M34.8101695,48.9050847 C34.8101695,41.3237288 41.0033898,35.1305085 48.5847458,35.1305085 C56.1661017,35.1305085 62.359322,41.3237288 62.359322,48.9050847 C62.359322,56.4864407 56.1661017,62.679661 48.5847458,62.679661 L34.8101695,62.679661 L34.8101695,48.9050847 Z" id="Path"></path>
                            <path d="M27.8694915,48.9050847 C27.8694915,56.4864407 21.6762712,62.679661 14.0949153,62.679661 C6.51355932,62.679661 0.320338983,56.4864407 0.320338983,48.9050847 L0.320338983,14.4152542 C0.320338983,6.83389831 6.51355932,0.640677966 14.0949153,0.640677966 C21.6762712,0.640677966 27.8694915,6.83389831 27.8694915,14.4152542 L27.8694915,48.9050847 Z" id="Path"></path>
                        </g>
                        <g id="Group" transform="translate(69.000000, 69.000000)" fill="#ECB22E">
                            <path d="M14.0949153,34.8101695 C21.6762712,34.8101695 27.8694915,41.0033898 27.8694915,48.5847458 C27.8694915,56.1661017 21.6762712,62.359322 14.0949153,62.359322 C6.51355932,62.359322 0.320338983,56.1661017 0.320338983,48.5847458 L0.320338983,34.8101695 L14.0949153,34.8101695 Z" id="Path"></path>
                            <path d="M14.0949153,27.8694915 C6.51355932,27.8694915 0.320338983,21.6762712 0.320338983,14.0949153 C0.320338983,6.51355932 6.51355932,0.320338983 14.0949153,0.320338983 L48.5847458,0.320338983 C56.1661017,0.320338983 62.359322,6.51355932 62.359322,14.0949153 C62.359322,21.6762712 56.1661017,27.8694915 48.5847458,27.8694915 L14.0949153,27.8694915 Z" id="Path"></path>
                        </g>
                    </g>
                </g>
            </g>
        </g>
    </g>
</svg>