<?xml version="1.0" encoding="UTF-8"?>
<svg width="230px" height="22px" viewBox="0 0 230 22" version="1.1" xmlns="http://www.w3.org/2000/svg" xmlns:xlink="http://www.w3.org/1999/xlink">
    <!-- Generator: Sketch 53.2 (72643) - https://sketchapp.com -->
    <title>Path 1-2</title>
    <desc>Created with Sketch.</desc>
    <g id="Page-1" stroke="none" stroke-width="1" fill="none" fill-rule="evenodd">
        <g id="How-It-Works" transform="translate(-234.000000, -680.000000)" fill="#F2E13A" fill-rule="nonzero">
            <g id="Steps" transform="translate(102.000000, 387.000000)">
                <path d="M133.474342,302.423025 L132.525658,299.576975 C135.978567,298.426005 139.56616,297.444619 143.288246,296.632661 L143.927647,299.56373 C140.308905,300.353144 136.824533,301.306294 133.474342,302.423025 Z M154.641598,297.75285 L154.274981,294.775336 C157.858783,294.334068 161.551731,294.030177 165.353809,293.86354 L165.485167,296.860663 C161.760713,297.023898 158.146196,297.321334 154.641598,297.75285 Z M176.382229,296.758548 L176.452014,293.75936 C180.054169,293.843175 183.744588,294.037718 187.523294,294.342928 L187.281768,297.333189 C183.559496,297.032538 179.926308,296.841012 176.382229,296.758548 Z M198.164463,298.48987 L198.553239,295.515168 C202.126458,295.982166 205.77218,296.539839 209.490431,297.188159 L208.975121,300.14357 C205.298428,299.502496 201.694867,298.951273 198.164463,298.48987 Z M219.745979,302.234001 L220.371187,299.299871 C223.899182,300.051621 227.487951,300.8792 231.137513,301.782595 L230.416664,304.694703 C226.798536,303.799089 223.241635,302.97886 219.745979,302.234001 Z M241.079773,307.336811 L241.754288,304.413623 C245.310996,305.234321 248.880507,305.980144 252.462836,306.651095 L251.910555,309.599821 C248.287293,308.921203 244.677028,308.166865 241.079773,307.336811 Z M262.832876,311.41047 L263.261654,308.44127 C266.86702,308.961916 270.485224,309.407808 274.11628,309.778947 L273.811232,312.763398 C270.138852,312.388035 266.479396,311.937059 262.832876,311.41047 Z M284.841499,313.661089 L285.02327,310.6666 C288.65331,310.88695 292.296052,311.033634 295.951509,311.10665 L295.891597,314.106052 C292.195545,314.032225 288.512175,313.883905 284.841499,313.661089 Z M306.947912,314.105458 L306.888085,311.106054 C310.519928,311.033613 314.164181,310.889446 317.820855,310.673546 L317.997675,313.66833 C314.302118,313.886526 310.61886,314.032237 306.947912,314.105458 Z M329.035417,312.80466 L328.744815,309.818768 C332.356656,309.467245 335.980477,309.046667 339.616284,308.557026 L340.016685,311.530186 C336.344458,312.024731 332.684033,312.449558 329.035417,312.80466 Z M350.965963,309.855019 L350.459732,306.89804 C354.034307,306.286077 357.620333,305.608216 361.217814,304.86445 L361.825208,307.802318 C358.194225,308.553011 354.574475,309.237247 350.965963,309.855019 Z" id="Path-1-2"></path>
            </g>
        </g>
    </g>
</svg>