<?xml version="1.0" encoding="UTF-8"?>
<svg width="154px" height="190px" viewBox="0 0 154 190" version="1.1" xmlns="http://www.w3.org/2000/svg" xmlns:xlink="http://www.w3.org/1999/xlink">
    <!-- Generator: Sketch 53.2 (72643) - https://sketchapp.com -->
    <title>Path 4</title>
    <desc>Created with Sketch.</desc>
    <g id="Page-1" stroke="none" stroke-width="1" fill="none" fill-rule="evenodd">
        <g id="Desktop" transform="translate(-766.000000, -1504.000000)" fill="#F2E13A" fill-rule="nonzero">
            <path d="M766.527928,1503.97841 L769.527617,1504.02159 C769.479578,1507.35861 769.494211,1510.6725 769.571509,1513.96327 L766.572337,1514.03372 C766.494146,1510.70495 766.479346,1507.35318 766.527928,1503.97841 Z M767.005738,1524.08893 L769.999803,1523.90032 C770.209254,1527.22523 770.484532,1530.52587 770.825632,1533.80225 L767.841759,1534.1129 C767.49642,1530.7958 767.217748,1527.45447 767.005738,1524.08893 Z M769.094636,1544.10639 L772.06276,1543.67023 C772.546417,1546.96153 773.098528,1550.22765 773.719091,1553.46858 L770.772618,1554.03276 C770.143899,1550.74923 769.584573,1547.44044 769.094636,1544.10639 Z M772.888314,1563.89744 L775.806907,1563.2033 C776.574984,1566.43281 777.413216,1569.63656 778.321605,1572.81457 L775.437126,1573.63905 C774.516378,1570.41781 773.666774,1567.1706 772.888314,1563.89744 Z M778.416654,1583.23636 L781.260869,1582.28219 C782.314087,1585.42165 783.438058,1588.5352 784.632788,1591.62287 L781.834932,1592.70546 C780.623777,1589.57534 779.484349,1586.41897 778.416654,1583.23636 Z M785.689815,1602.03121 L788.435523,1600.82246 C789.767225,1603.84744 791.169199,1606.84677 792.641458,1609.82046 L789.952922,1611.15154 C788.46071,1608.13755 787.039671,1605.09744 785.689815,1602.03121 Z M794.635375,1620.10119 L797.262024,1618.65181 C798.856066,1621.54062 800.518803,1624.40441 802.250249,1627.24319 L799.689052,1628.80533 C797.935018,1625.92951 796.250455,1623.02813 794.635375,1620.10119 Z M805.20533,1637.21206 L807.647029,1635.46905 C809.571103,1638.16438 811.59222,1640.76155 813.710421,1643.26065 L811.421878,1645.20038 C809.249777,1642.63769 807.17758,1639.97488 805.20533,1637.21206 Z M818.29934,1652.64922 L820.414847,1650.5221 C822.746614,1652.84114 825.177169,1655.06088 827.706602,1657.18138 L825.779276,1659.48038 C823.184768,1657.30533 820.691426,1655.02825 818.29934,1652.64922 Z M833.794097,1665.64857 L835.524003,1663.19757 C838.193539,1665.08171 840.958161,1666.87084 843.817966,1668.56496 L842.288944,1671.14607 C839.360761,1669.41144 836.529113,1667.57893 833.794097,1665.64857 Z M851.214265,1675.98288 L852.544121,1673.29374 C855.462978,1674.73719 858.469315,1676.09353 861.563197,1677.36273 L860.424593,1680.13827 C857.266391,1678.84268 854.196262,1677.45756 851.214265,1675.98288 Z M869.93524,1683.67987 L870.892017,1680.83653 C873.974967,1681.87394 877.136017,1682.83363 880.375194,1683.71559 L879.587055,1686.61021 C876.291609,1685.71294 873.074328,1684.73617 869.93524,1683.67987 Z M889.316821,1688.97953 L889.950233,1686.04716 C893.132145,1686.73448 896.382893,1687.35325 899.702484,1687.90346 L899.211941,1690.86308 C895.844899,1690.30501 892.546523,1689.67717 889.316821,1688.97953 Z M909.187992,1692.28823 L909.5479,1689.3099 C912.784384,1689.701 916.081313,1690.03184 919.438685,1690.30239 L919.197716,1693.29269 C915.800937,1693.01897 912.464364,1692.68416 909.187992,1692.28823 Z" id="Path-4" transform="translate(842.969343, 1598.635552) scale(-1, -1) translate(-842.969343, -1598.635552) "></path>
        </g>
    </g>
</svg>