<?xml version="1.0" encoding="UTF-8"?>
<svg width="146px" height="199px" viewBox="0 0 146 199" version="1.1" xmlns="http://www.w3.org/2000/svg" xmlns:xlink="http://www.w3.org/1999/xlink">
    <!-- Generator: Sketch 53.2 (72643) - https://sketchapp.com -->
    <title>Path 3</title>
    <desc>Created with Sketch.</desc>
    <g id="Page-1" stroke="none" stroke-width="1" fill="none" fill-rule="evenodd">
        <g id="Desktop" transform="translate(-87.000000, -1278.000000)" fill="#F2E13A" fill-rule="nonzero">
            <path d="M231.730021,1278.5245 L232.269979,1281.4755 C229.00321,1282.07324 225.772486,1282.76478 222.577769,1283.55012 L221.861616,1280.63685 C225.11481,1279.83714 228.404292,1279.13302 231.730021,1278.5245 Z M212.135729,1283.34624 L213.029463,1286.21002 C209.87195,1287.19543 206.751135,1288.27679 203.666975,1289.45411 L202.597078,1286.65138 C205.73934,1285.45187 208.918905,1284.35016 212.135729,1283.34624 Z M193.274592,1290.54674 L194.516663,1293.27754 C191.518146,1294.64138 188.555861,1296.10045 185.629773,1297.65478 L184.222415,1295.00538 C187.202674,1293.42227 190.220078,1291.93605 193.274592,1290.54674 Z M175.461408,1300.00359 L177.025201,1302.56378 C174.221727,1304.27617 171.453083,1306.08053 168.719249,1307.97688 L167.009369,1305.51186 C169.790817,1303.58249 172.60817,1301.74639 175.461408,1300.00359 Z M158.86842,1311.50513 L160.713264,1313.87083 C158.128089,1315.88683 155.575624,1317.98943 153.055862,1320.17868 L151.088272,1317.91405 C153.647872,1315.69018 156.241256,1313.55387 158.86842,1311.50513 Z M143.62551,1324.73794 L145.704417,1326.90084 C143.343101,1329.17046 141.012021,1331.52024 138.71118,1333.95021 L136.532767,1331.88756 C138.865815,1329.42358 141.230061,1327.04036 143.62551,1324.73794 Z M129.812195,1339.30819 L132.07896,1341.27333 C131.02909,1342.48434 129.985853,1343.71294 128.949251,1344.95913 C127.860024,1346.26858 126.79406,1347.58989 125.751259,1348.92316 L123.388202,1347.07493 C124.44957,1345.71792 125.534429,1344.37319 126.642869,1343.04064 C127.692482,1341.77881 128.748924,1340.53466 129.812195,1339.30819 Z M117.410643,1355.20661 L119.880271,1356.90982 C117.99912,1359.63745 116.208408,1362.41185 114.508103,1365.23304 L111.938679,1363.68447 C113.670706,1360.81065 115.494704,1357.98468 117.410643,1355.20661 Z M106.997001,1372.49082 L109.657615,1373.87687 C108.132579,1376.80427 106.698634,1379.77898 105.355764,1382.80102 L102.614242,1381.5828 C103.982326,1378.50402 105.443252,1375.47334 106.997001,1372.49082 Z M98.8022195,1390.9267 L101.613347,1391.97434 C100.464642,1395.05664 99.4049838,1398.18536 98.4343722,1401.36055 L95.5654225,1400.48355 C96.5535549,1397.25105 97.6324875,1394.06542 98.8022195,1390.9267 Z M92.8950708,1410.23247 L95.8102182,1410.94093 C95.0353616,1414.12929 94.3452851,1417.36198 93.7400005,1420.63903 L90.7899005,1420.09414 C91.4052751,1416.76245 92.1069946,1413.47522 92.8950708,1410.23247 Z M89.2208001,1430.08382 L92.1957097,1430.471 C91.7728689,1433.71986 91.4290925,1437.01013 91.1643973,1440.34184 L88.1738205,1440.10425 C88.4424677,1436.7228 88.7914554,1433.38265 89.2208001,1430.08382 Z M87.6170888,1450.11411 L90.6155207,1450.2111 C90.5096513,1453.48419 90.4765463,1456.79542 90.5162219,1460.1448 L87.5164323,1460.18033 C87.4762363,1456.78702 87.509783,1453.43161 87.6170888,1450.11411 Z M87.8460812,1470.24744 L90.8418455,1470.08808 C90.9438604,1472.00579 91.0687101,1473.93546 91.2163972,1475.8771 L88.2250382,1476.10463 C88.0756298,1474.14037 87.94931,1472.18797 87.8460812,1470.24744 Z" id="Path-3" transform="translate(159.884990, 1377.314565) scale(1, -1) translate(-159.884990, -1377.314565) "></path>
        </g>
    </g>
</svg>